<svg width="75" height="90" viewBox="0 0 75 90" fill="none" xmlns="http://www.w3.org/2000/svg">
<path d="M37.4997 0.4375C57.6926 0.4375 74.0622 16.8071 74.0622 37C74.0622 52.4487 63.2076 69.2848 41.7754 87.6919C39.3162 89.8041 35.6831 89.8041 33.2141 87.6835L31.7975 86.4555C11.3139 68.5332 0.937195 52.1043 0.937195 37C0.937195 16.8071 17.3068 0.4375 37.4997 0.4375ZM37.4997 22.9375C29.7332 22.9375 23.4372 29.2335 23.4372 37C23.4372 44.7665 29.7332 51.0625 37.4997 51.0625C45.2662 51.0625 51.5622 44.7665 51.5622 37C51.5622 29.2335 45.2662 22.9375 37.4997 22.9375Z" fill="#FFB800"/>
</svg>
