<svg width="707" height="581" viewBox="0 0 707 581" fill="none" xmlns="http://www.w3.org/2000/svg">
<path d="M399.7 98.2779C350.373 86.7437 182.764 125.232 118.427 218.918C54.0908 312.603 48.7777 410.485 185.479 476.828C322.179 543.17 409.018 464.328 453.559 401.209C498.099 338.089 491.982 258.115 481.812 240.5C471.642 222.885 449.741 218.133 443.538 210.406C431.253 195.101 438.469 182.018 439.526 165.75C440.583 149.482 449.028 109.812 399.7 98.2779Z" fill="#252525" fill-opacity="0.55"/>
<path d="M505.565 200.054C469.461 168.978 308.834 123.714 208.626 167.627C108.418 211.539 56.104 285.177 139.365 397.998C222.626 510.82 334.622 488.526 403.147 459.476C471.671 430.426 505.565 365.571 505.565 347.33C505.565 329.089 489.355 315.578 487.881 306.795C484.962 289.4 497.46 282.475 506.302 270.314C515.144 258.154 541.669 231.131 505.565 200.054Z" fill="#639200" fill-opacity="0.4"/>
<mask id="mask0_30_114" style="mask-type:alpha" maskUnits="userSpaceOnUse" x="-65" y="0" width="772" height="429">
<rect width="457.997" height="31.6292" transform="matrix(0.662108 -0.749409 0.767504 0.641044 118.421 356.762)" fill="#333333"/>
<rect width="457.997" height="22.404" transform="matrix(0.662108 -0.749409 0.767504 0.641044 187.202 414.21)" fill="#333333"/>
<rect width="398.326" height="20.8372" transform="matrix(0.922725 0.38546 -0.404184 0.914678 339.454 130.946)" fill="#333333"/>
<rect width="425.524" height="19.7955" transform="matrix(0.814999 0.579462 -0.60107 0.799196 172.25 112.795)" fill="#333333"/>
<rect width="425.524" height="19.7955" transform="matrix(0.814999 0.579462 -0.60107 0.799196 -53.1015 79.0864)" fill="#333333"/>
<rect width="197.082" height="19.7955" transform="matrix(0.814999 0.579462 -0.60107 0.799196 13.8982 276.786)" fill="#333333"/>
<rect width="423.218" height="19.9041" transform="matrix(0.686604 -0.727031 0.745962 0.665989 -30.3305 307.692)" fill="#333333"/>
</mask>
<g mask="url(#mask0_30_114)">
<path d="M505.565 200.054C469.461 168.978 308.834 123.714 208.626 167.627C108.418 211.539 56.104 285.177 139.365 397.998C222.626 510.82 334.622 488.526 403.147 459.476C471.671 430.426 505.565 365.571 505.565 347.33C505.565 329.089 489.355 315.578 487.881 306.795C484.962 289.4 497.46 282.475 506.302 270.314C515.144 258.154 541.669 231.131 505.565 200.054Z" fill="#535930" fill-opacity="0.3"/>
</g>
</svg>
