<svg width="564" height="541" viewBox="0 0 564 541" fill="none" xmlns="http://www.w3.org/2000/svg">
<path d="M389.7 58.3586C340.372 46.8244 172.764 85.3126 108.427 178.998C44.0908 272.684 38.7776 370.566 175.478 436.908C312.179 503.251 399.018 424.409 443.559 361.289C488.099 298.17 481.982 218.195 471.812 200.581C461.642 182.966 439.741 178.213 433.538 170.486C421.253 155.182 428.469 142.098 429.526 125.831C430.583 109.563 439.028 69.8929 389.7 58.3586Z" fill="#252525" fill-opacity="0.55"/>
<path d="M106.435 387.802C142.539 421.71 303.166 471.097 403.373 423.184C503.581 375.271 555.895 294.925 472.635 171.826C389.374 48.7269 277.377 73.052 208.853 104.748C140.328 136.444 106.435 207.208 106.435 227.11C106.435 247.012 122.644 261.755 124.118 271.337C127.037 290.317 114.54 297.874 105.698 311.142C96.8558 324.41 70.3302 353.895 106.435 387.802Z" fill="#639200" fill-opacity="0.4"/>
</svg>
