<svg width="15" height="19" viewBox="0 0 15 19" fill="none" xmlns="http://www.w3.org/2000/svg">
<path d="M12.9545 14.4186L10.5537 12.8083C10.4524 12.7361 10.3337 12.6922 10.2098 12.6811C10.0859 12.6701 9.96125 12.6922 9.84875 12.7453L8.92702 13.2128C8.81138 13.2696 8.68166 13.2915 8.55378 13.2757C8.4259 13.2599 8.30541 13.2071 8.20709 13.1238C6.48382 11.6979 5.33039 9.70007 4.95709 7.49468C4.93412 7.36789 4.94866 7.23715 4.99892 7.11851C5.04917 6.99986 5.13297 6.89845 5.24002 6.82673L6.07925 6.21633C6.18328 6.14781 6.26715 6.05277 6.32218 5.94102C6.37722 5.82927 6.40144 5.70486 6.39234 5.58062L6.19816 2.69628L6.15381 1.95748C6.14581 1.85115 6.11389 1.748 6.06044 1.65574C5.97472 1.506 5.83616 1.39368 5.67192 1.34081C5.219 1.19005 4.73665 1.14956 4.26494 1.22267C3.79323 1.29579 3.34578 1.48042 2.95976 1.76121L2.77124 1.90469L2.67359 1.97955C2.62813 2.01234 2.58448 2.04756 2.54283 2.08506L2.42253 2.2007C0.834709 3.75252 1.13339 7.65386 3.1795 11.5278L3.802 12.606C6.13089 16.3098 9.36021 18.5191 11.5076 17.9525L11.6679 17.9062C11.7209 17.889 11.7729 17.8689 11.8238 17.8462L11.9379 17.7999L12.1565 17.7084C12.5924 17.5143 12.9758 17.2189 13.2747 16.8469C13.5737 16.4749 13.7795 16.0369 13.8753 15.5694C13.9116 15.4007 13.8836 15.2246 13.7968 15.0755C13.7436 14.9831 13.6702 14.9038 13.5822 14.8437L12.9545 14.4186Z" stroke="white" stroke-width="1.5" stroke-miterlimit="10"/>
</svg>
