<svg width="52" height="52" viewBox="0 0 52 52" fill="none" xmlns="http://www.w3.org/2000/svg">
<g clip-path="url(#clip0_46_1053)">
<path d="M38.9015 35.5737L33.6998 32.0846C33.4803 31.9282 33.223 31.8331 32.9546 31.8092C32.6861 31.7852 32.4162 31.8332 32.1724 31.9482L30.1753 32.9611C29.9248 33.0843 29.6437 33.1316 29.3666 33.0974C29.0896 33.0632 28.8285 32.9488 28.6155 32.7684C24.8817 29.6787 22.3826 25.3502 21.5738 20.5718C21.524 20.2971 21.5555 20.0139 21.6644 19.7568C21.7733 19.4997 21.9549 19.28 22.1868 19.1246L24.0052 17.8021C24.2306 17.6536 24.4123 17.4477 24.5315 17.2056C24.6508 16.9635 24.7032 16.6939 24.6835 16.4247L24.2628 10.1753L24.1667 8.57456C24.1494 8.34419 24.0802 8.12071 23.9644 7.9208C23.7787 7.59636 23.4784 7.353 23.1226 7.23845C22.1413 6.91182 21.0962 6.82407 20.0742 6.98249C19.0521 7.14092 18.0826 7.54094 17.2462 8.14932L16.8378 8.46019L16.6262 8.62238C16.5277 8.69343 16.4332 8.76975 16.3429 8.851L16.0823 9.10156C12.642 12.4638 13.2891 20.9167 17.7224 29.3103L19.0711 31.6464C24.117 39.6712 31.1139 44.4581 35.7666 43.2305L36.1139 43.13C36.2287 43.0928 36.3415 43.0494 36.4517 43.0001L36.699 42.8998L37.1724 42.7015C38.1171 42.2809 38.9477 41.641 39.5954 40.835C40.2431 40.029 40.6891 39.0801 40.8965 38.0671C40.9752 37.7016 40.9146 37.3199 40.7265 36.9969C40.6112 36.7966 40.4523 36.625 40.2614 36.4948L38.9015 35.5737Z" stroke="white" stroke-width="1.5" stroke-miterlimit="10"/>
</g>
<defs>
<clipPath id="clip0_46_1053">
<rect width="52" height="52" fill="white"/>
</clipPath>
</defs>
</svg>
