<svg width="20" height="14" viewBox="0 0 20 14" fill="none" xmlns="http://www.w3.org/2000/svg">
<mask id="path-1-inside-1_13_140" fill="white">
<path d="M13.9483 4.46826H6.05164C5.87686 4.46826 5.73517 4.61794 5.73517 4.80257C5.73517 4.98719 5.87686 5.13687 6.05164 5.13687H13.9484C14.1232 5.13687 14.2649 4.98719 14.2649 4.80257C14.2649 4.61794 14.1231 4.46826 13.9483 4.46826Z"/>
</mask>
<path d="M13.9483 4.46826H6.05164C5.87686 4.46826 5.73517 4.61794 5.73517 4.80257C5.73517 4.98719 5.87686 5.13687 6.05164 5.13687H13.9484C14.1232 5.13687 14.2649 4.98719 14.2649 4.80257C14.2649 4.61794 14.1231 4.46826 13.9483 4.46826Z" fill="#FFB800"/>
<path d="M13.9483 -0.531738H6.05164V9.46826H13.9483V-0.531738ZM6.05164 -0.531738C2.86066 -0.531738 0.735168 2.11837 0.735168 4.80257H10.7352C10.7352 7.11751 8.89306 9.46826 6.05164 9.46826V-0.531738ZM0.735168 4.80257C0.735168 7.48676 2.86066 10.1369 6.05164 10.1369V0.136871C8.89306 0.136871 10.7352 2.48762 10.7352 4.80257H0.735168ZM6.05164 10.1369H13.9484V0.136871H6.05164V10.1369ZM13.9484 10.1369C17.1394 10.1369 19.2649 7.48676 19.2649 4.80257H9.26486C9.26486 2.48762 11.107 0.136871 13.9484 0.136871V10.1369ZM19.2649 4.80257C19.2649 2.11748 17.1385 -0.531738 13.9483 -0.531738V9.46826C11.1078 9.46826 9.26486 7.11841 9.26486 4.80257H19.2649Z" fill="#FFB800" mask="url(#path-1-inside-1_13_140)"/>
<path d="M2.75259 8.15169C2.6636 8.20816 2.56946 8.25854 2.47046 8.30193H2.2832C2.27711 8.29608 2.27128 8.29021 2.26571 8.28433C2.20663 8.22195 2.16873 8.15228 2.14887 8.08385L2.61535 7.96778L2.61566 7.96771L2.75259 7.93364L3.13905 7.83748C3.09498 7.88273 3.0488 7.92621 3.00056 7.96772C3.00054 7.96774 3.00052 7.96776 3.00049 7.96778C2.92304 8.03444 2.84031 8.09603 2.75259 8.15169Z" fill="#FFB800" stroke="#FFB800" stroke-width="5"/>
<path d="M16.9995 7.96778C16.9512 7.92625 16.905 7.88275 16.8609 7.83748L17.2474 7.93364L17.3846 7.96778L17.8511 8.08384C17.8312 8.15228 17.7933 8.22196 17.7343 8.28434C17.7287 8.29022 17.7229 8.29609 17.7168 8.30193H17.5295C17.4305 8.25854 17.3364 8.20816 17.2474 8.15169C17.1597 8.09603 17.0769 8.03444 16.9995 7.96778Z" fill="#FFB800" stroke="#FFB800" stroke-width="5"/>
<mask id="path-5-inside-2_13_140" fill="white">
<path d="M19.3542 4.51448C18.9106 4.02487 18.3082 3.75522 17.6579 3.75522C17.6294 3.75522 17.6011 3.75927 17.5736 3.76729L16.5566 4.06404L15.0583 1.02421C14.7901 0.480002 14.1249 0.0537109 13.5441 0.0537109H6.45587C5.87496 0.0537109 5.20983 0.480002 4.94159 1.02421L3.44335 4.06404L2.4263 3.76729C2.39888 3.75927 2.37052 3.75522 2.34204 3.75522C1.69176 3.75522 1.08933 4.02487 0.645772 4.51448C0.202211 5.0041 -0.0263207 5.6516 0.00241458 6.3397L0.232086 11.1756C0.240525 11.3535 0.37956 11.4932 0.548174 11.4932H0.653663V12.9526C0.653663 13.1372 0.795356 13.2868 0.970131 13.2868H4.29983C4.47461 13.2868 4.6163 13.1372 4.6163 12.9526V12.4958C4.6163 12.3113 4.47461 12.1616 4.29983 12.1616C4.12506 12.1616 3.98337 12.3113 3.98337 12.4958V12.6184H1.28656V11.4932H18.7134V12.6184H16.0166V12.4958C16.0166 12.3113 15.8749 12.1616 15.7001 12.1616C15.5254 12.1616 15.3837 12.3113 15.3837 12.4958V12.9526C15.3837 13.1372 15.5254 13.2868 15.7001 13.2868H19.0298C19.2046 13.2868 19.3463 13.1372 19.3463 12.9526V11.4932H19.4518C19.6204 11.4932 19.7594 11.3535 19.7679 11.1756L19.9976 6.33774C20.0263 5.6516 19.7978 5.0041 19.3542 4.51448ZM19.3654 6.30623L19.1508 10.8247H0.849156L0.634675 6.30824C0.613704 5.8061 0.780039 5.3332 1.10313 4.97665C1.41681 4.63039 1.8408 4.4352 2.30086 4.42424L3.51837 4.7795C3.51913 4.77972 3.51989 4.77994 3.52069 4.78017L4.7015 5.12469C4.8699 5.17384 5.04425 5.06947 5.09079 4.89153C5.13733 4.71364 5.03851 4.52955 4.87003 4.48039L4.06721 4.24617L5.50305 1.33294C5.66339 1.00763 6.10864 0.722247 6.45591 0.722247H13.5441C13.8913 0.722247 14.3366 1.00763 14.497 1.33294L15.9328 4.24617L15.13 4.48039C14.9615 4.52955 14.8627 4.71364 14.9092 4.89153C14.9558 5.06947 15.1301 5.17379 15.2985 5.12469L17.6992 4.42424C18.1592 4.43525 18.5832 4.63044 18.8969 4.97665C19.2199 5.3332 19.3863 5.8061 19.3654 6.30623Z"/>
</mask>
<path d="M19.3542 4.51448C18.9106 4.02487 18.3082 3.75522 17.6579 3.75522C17.6294 3.75522 17.6011 3.75927 17.5736 3.76729L16.5566 4.06404L15.0583 1.02421C14.7901 0.480002 14.1249 0.0537109 13.5441 0.0537109H6.45587C5.87496 0.0537109 5.20983 0.480002 4.94159 1.02421L3.44335 4.06404L2.4263 3.76729C2.39888 3.75927 2.37052 3.75522 2.34204 3.75522C1.69176 3.75522 1.08933 4.02487 0.645772 4.51448C0.202211 5.0041 -0.0263207 5.6516 0.00241458 6.3397L0.232086 11.1756C0.240525 11.3535 0.37956 11.4932 0.548174 11.4932H0.653663V12.9526C0.653663 13.1372 0.795356 13.2868 0.970131 13.2868H4.29983C4.47461 13.2868 4.6163 13.1372 4.6163 12.9526V12.4958C4.6163 12.3113 4.47461 12.1616 4.29983 12.1616C4.12506 12.1616 3.98337 12.3113 3.98337 12.4958V12.6184H1.28656V11.4932H18.7134V12.6184H16.0166V12.4958C16.0166 12.3113 15.8749 12.1616 15.7001 12.1616C15.5254 12.1616 15.3837 12.3113 15.3837 12.4958V12.9526C15.3837 13.1372 15.5254 13.2868 15.7001 13.2868H19.0298C19.2046 13.2868 19.3463 13.1372 19.3463 12.9526V11.4932H19.4518C19.6204 11.4932 19.7594 11.3535 19.7679 11.1756L19.9976 6.33774C20.0263 5.6516 19.7978 5.0041 19.3542 4.51448ZM19.3654 6.30623L19.1508 10.8247H0.849156L0.634675 6.30824C0.613704 5.8061 0.780039 5.3332 1.10313 4.97665C1.41681 4.63039 1.8408 4.4352 2.30086 4.42424L3.51837 4.7795C3.51913 4.77972 3.51989 4.77994 3.52069 4.78017L4.7015 5.12469C4.8699 5.17384 5.04425 5.06947 5.09079 4.89153C5.13733 4.71364 5.03851 4.52955 4.87003 4.48039L4.06721 4.24617L5.50305 1.33294C5.66339 1.00763 6.10864 0.722247 6.45591 0.722247H13.5441C13.8913 0.722247 14.3366 1.00763 14.497 1.33294L15.9328 4.24617L15.13 4.48039C14.9615 4.52955 14.8627 4.71364 14.9092 4.89153C14.9558 5.06947 15.1301 5.17379 15.2985 5.12469L17.6992 4.42424C18.1592 4.43525 18.5832 4.63044 18.8969 4.97665C19.2199 5.3332 19.3863 5.8061 19.3654 6.30623Z" fill="#FFB800"/>
<path d="M17.5736 3.76729L18.9741 8.56716L18.9771 8.56627L17.5736 3.76729ZM16.5566 4.06404L12.0717 6.27449L13.9275 10.0396L17.9571 8.8639L16.5566 4.06404ZM15.0583 1.02421L19.5432 -1.18624L19.5431 -1.18635L15.0583 1.02421ZM4.94159 1.02421L0.456786 -1.18635L0.456736 -1.18624L4.94159 1.02421ZM3.44335 4.06404L2.04287 8.8639L6.07247 10.0396L7.9282 6.27449L3.44335 4.06404ZM2.4263 3.76729L1.02279 8.56627L1.02583 8.56715L2.4263 3.76729ZM0.00241458 6.3397L-4.99323 6.54832L-4.99263 6.56261L-4.99196 6.57689L0.00241458 6.3397ZM0.232086 11.1756L5.22647 10.9387L5.22646 10.9385L0.232086 11.1756ZM0.653663 11.4932H5.65366V6.49316H0.653663V11.4932ZM3.98337 12.6184V17.6184H8.98337V12.6184H3.98337ZM1.28656 12.6184H-3.71344V17.6184H1.28656V12.6184ZM1.28656 11.4932V6.49316H-3.71344V11.4932H1.28656ZM18.7134 11.4932H23.7134V6.49316H18.7134V11.4932ZM18.7134 12.6184V17.6184H23.7134V12.6184H18.7134ZM16.0166 12.6184H11.0166V17.6184H16.0166V12.6184ZM19.3463 11.4932V6.49316H14.3463V11.4932H19.3463ZM19.7679 11.1756L14.7735 10.9385L14.7735 10.9387L19.7679 11.1756ZM19.9976 6.33774L24.992 6.57488L24.9926 6.56077L24.9932 6.54665L19.9976 6.33774ZM19.1508 10.8247V15.8247H23.919L24.1452 11.0618L19.1508 10.8247ZM0.849156 10.8247L-4.14522 11.0618L-3.91903 15.8247H0.849156V10.8247ZM0.634675 6.30824L-4.36097 6.51688L-4.36037 6.53115L-4.3597 6.54542L0.634675 6.30824ZM1.10313 4.97665L4.80823 8.33407L4.80866 8.33359L1.10313 4.97665ZM2.30086 4.42424L3.7014 -0.3756L2.95698 -0.592812L2.18175 -0.574339L2.30086 4.42424ZM3.51837 4.7795L4.92587 -0.0183122L4.91891 -0.0203426L3.51837 4.7795ZM3.52069 4.78017L4.92113 -0.0197048L4.8904 -0.0286702L4.85956 -0.0372415L3.52069 4.78017ZM4.7015 5.12469L6.10243 0.324959L6.10193 0.324813L4.7015 5.12469ZM5.09079 4.89153L0.253599 3.62601L0.253522 3.6263L5.09079 4.89153ZM4.87003 4.48039L3.46964 9.28028L3.46974 9.28031L4.87003 4.48039ZM4.06721 4.24617L-0.417648 2.03573L-3.05066 7.37796L2.66682 9.04605L4.06721 4.24617ZM5.50305 1.33294L1.01823 -0.877593L1.01819 -0.877501L5.50305 1.33294ZM14.497 1.33294L18.9818 -0.8775L18.9818 -0.877593L14.497 1.33294ZM15.9328 4.24617L17.3332 9.04605L23.0507 7.37796L20.4177 2.03573L15.9328 4.24617ZM15.13 4.48039L16.5303 9.28031L16.5304 9.28028L15.13 4.48039ZM14.9092 4.89153L19.7465 3.6263L19.7464 3.62601L14.9092 4.89153ZM15.2985 5.12469L16.698 9.92485L16.699 9.92455L15.2985 5.12469ZM17.6992 4.42424L17.8188 -0.574328L17.0433 -0.59288L16.2987 -0.37562L17.6992 4.42424ZM18.8969 4.97665L15.1916 8.33383L15.1916 8.33383L18.8969 4.97665ZM23.0595 1.15735C21.6855 -0.359194 19.7455 -1.24478 17.6579 -1.24478V8.75522C16.8708 8.75522 16.1356 8.40893 15.6488 7.87162L23.0595 1.15735ZM17.6579 -1.24478C17.1543 -1.24478 16.6533 -1.17301 16.1701 -1.03168L18.9771 8.56627C18.5488 8.69155 18.1045 8.75522 17.6579 8.75522V-1.24478ZM16.1732 -1.03257L15.1561 -0.735824L17.9571 8.8639L18.9741 8.56715L16.1732 -1.03257ZM21.0414 1.85359L19.5432 -1.18624L10.5735 3.23466L12.0717 6.27449L21.0414 1.85359ZM19.5431 -1.18635C18.9377 -2.41474 18.0127 -3.30034 17.1164 -3.87477C16.2298 -4.44294 14.995 -4.94629 13.5441 -4.94629V5.05371C12.674 5.05371 12.0622 4.76351 11.7205 4.54454C11.3691 4.3193 10.9108 3.91894 10.5735 3.23476L19.5431 -1.18635ZM13.5441 -4.94629H6.45587V5.05371H13.5441V-4.94629ZM6.45587 -4.94629C5.00491 -4.94629 3.7701 -4.44296 2.88351 -3.87475C1.98717 -3.30028 1.06222 -2.41466 0.456786 -1.18635L9.42639 3.23476C9.08919 3.91887 8.63093 4.31924 8.27944 4.54451C7.9377 4.76353 7.32592 5.05371 6.45587 5.05371V-4.94629ZM0.456736 -1.18624L-1.04151 1.85359L7.9282 6.27449L9.42644 3.23466L0.456736 -1.18624ZM4.84382 -0.735824L3.82678 -1.03257L1.02583 8.56715L2.04287 8.8639L4.84382 -0.735824ZM3.82981 -1.03168C3.3466 -1.173 2.84566 -1.24478 2.34204 -1.24478V8.75522C1.89538 8.75522 1.45115 8.69155 1.02279 8.56627L3.82981 -1.03168ZM2.34204 -1.24478C0.254532 -1.24478 -1.6856 -0.359291 -3.05974 1.15752L4.35128 7.87144C3.86427 8.40903 3.12899 8.75522 2.34204 8.75522V-1.24478ZM-3.05974 1.15752C-4.424 2.66343 -5.07426 4.60789 -4.99323 6.54832L4.99806 6.13108C5.02162 6.69531 4.82842 7.34477 4.35128 7.87144L-3.05974 1.15752ZM-4.99196 6.57689L-4.76228 11.4128L5.22646 10.9385L4.99679 6.1025L-4.99196 6.57689ZM-4.76229 11.4126C-4.63883 14.0147 -2.52557 16.4932 0.548174 16.4932V6.49316C3.28469 6.49316 5.11988 8.6923 5.22647 10.9387L-4.76229 11.4126ZM0.548174 16.4932H0.653663V6.49316H0.548174V16.4932ZM-4.34634 11.4932V12.9526H5.65366V11.4932H-4.34634ZM-4.34634 12.9526C-4.34634 15.6379 -2.21974 18.2868 0.970131 18.2868V8.28683C3.81045 8.28683 5.65366 10.6364 5.65366 12.9526H-4.34634ZM0.970131 18.2868H4.29983V8.28683H0.970131V18.2868ZM4.29983 18.2868C7.4897 18.2868 9.6163 15.6379 9.6163 12.9526H-0.383697C-0.383697 10.6364 1.45952 8.28683 4.29983 8.28683V18.2868ZM9.6163 12.9526V12.4958H-0.383697V12.9526H9.6163ZM9.6163 12.4958C9.6163 9.81051 7.4897 7.16161 4.29983 7.16161V17.1616C1.45952 17.1616 -0.383697 14.812 -0.383697 12.4958H9.6163ZM4.29983 7.16161C1.10997 7.16161 -1.01663 9.81051 -1.01663 12.4958H8.98337C8.98337 14.812 7.14015 17.1616 4.29983 17.1616V7.16161ZM-1.01663 12.4958V12.6184H8.98337V12.4958H-1.01663ZM3.98337 7.61838H1.28656V17.6184H3.98337V7.61838ZM6.28656 12.6184V11.4932H-3.71344V12.6184H6.28656ZM1.28656 16.4932H18.7134V6.49316H1.28656V16.4932ZM13.7134 11.4932V12.6184H23.7134V11.4932H13.7134ZM18.7134 7.61838H16.0166V17.6184H18.7134V7.61838ZM21.0166 12.6184V12.4958H11.0166V12.6184H21.0166ZM21.0166 12.4958C21.0166 9.81051 18.89 7.16161 15.7001 7.16161V17.1616C12.8598 17.1616 11.0166 14.812 11.0166 12.4958H21.0166ZM15.7001 7.16161C12.5103 7.16161 10.3837 9.81051 10.3837 12.4958H20.3837C20.3837 14.812 18.5405 17.1616 15.7001 17.1616V7.16161ZM10.3837 12.4958V12.9526H20.3837V12.4958H10.3837ZM10.3837 12.9526C10.3837 15.6379 12.5103 18.2868 15.7001 18.2868V8.28683C18.5405 8.28683 20.3837 10.6364 20.3837 12.9526H10.3837ZM15.7001 18.2868H19.0298V8.28683H15.7001V18.2868ZM19.0298 18.2868C22.2197 18.2868 24.3463 15.6379 24.3463 12.9526H14.3463C14.3463 10.6364 16.1895 8.28683 19.0298 8.28683V18.2868ZM24.3463 12.9526V11.4932H14.3463V12.9526H24.3463ZM19.3463 16.4932H19.4518V6.49316H19.3463V16.4932ZM19.4518 16.4932C22.5251 16.4932 24.6388 14.0152 24.7623 11.4126L14.7735 10.9387C14.8801 8.69187 16.7157 6.49316 19.4518 6.49316V16.4932ZM24.7623 11.4128L24.992 6.57488L15.0032 6.1006L14.7735 10.9385L24.7623 11.4128ZM24.9932 6.54665C25.0744 4.60592 24.4226 2.66186 23.0595 1.15735L15.6488 7.87162C15.1729 7.34634 14.9782 6.69728 15.002 6.12883L24.9932 6.54665ZM14.371 6.06907L14.1564 10.5875L24.1452 11.0618L24.3598 6.5434L14.371 6.06907ZM19.1508 5.82467H0.849156V15.8247H19.1508V5.82467ZM5.84353 10.5875L5.62905 6.07106L-4.3597 6.54542L-4.14522 11.0618L5.84353 10.5875ZM5.63032 6.0996C5.66142 6.84421 5.40985 7.67015 4.80823 8.33407L-2.60196 1.61923C-3.84977 2.99625 -4.43401 4.768 -4.36097 6.51688L5.63032 6.0996ZM4.80866 8.33359C4.21546 8.98839 3.34924 9.40068 2.41997 9.42282L2.18175 -0.574339C0.332348 -0.530271 -1.38183 0.272391 -2.6024 1.6197L4.80866 8.33359ZM0.900315 9.22408L2.11783 9.57934L4.91891 -0.0203426L3.7014 -0.3756L0.900315 9.22408ZM2.11087 9.57731C2.11088 9.57731 2.11106 9.57736 2.11125 9.57742C2.11147 9.57748 2.1118 9.57758 2.1122 9.5777C2.11299 9.57793 2.11425 9.5783 2.11579 9.57875C2.11883 9.57963 2.12367 9.58105 2.12962 9.58277C2.14153 9.58622 2.15967 9.59142 2.18182 9.59758L4.85956 -0.0372415C4.88091 -0.0313086 4.89827 -0.0263256 4.90941 -0.0231019C4.91933 -0.0202306 4.92782 -0.0177362 4.92587 -0.0183071L2.11087 9.57731ZM2.12025 9.58004L3.30106 9.92456L6.10193 0.324813L4.92113 -0.0197048L2.12025 9.58004ZM3.30056 9.92441C6.39096 10.8264 9.22769 8.83445 9.92807 6.15676L0.253522 3.6263C0.860811 1.30449 3.34883 -0.478756 6.10243 0.324959L3.30056 9.92441ZM9.92799 6.15706C10.6054 3.56766 9.23842 0.546368 6.27031 -0.319524L3.46974 9.28031C0.838604 8.51272 -0.330764 5.85961 0.253599 3.62601L9.92799 6.15706ZM6.27041 -0.319496L5.4676 -0.55372L2.66682 9.04605L3.46964 9.28028L6.27041 -0.319496ZM8.55207 6.45661L9.9879 3.54338L1.01819 -0.877501L-0.417648 2.03573L8.55207 6.45661ZM9.98786 3.54347C9.5614 4.40869 8.97303 4.88086 8.60739 5.1152C8.25741 5.33951 7.52473 5.72225 6.45591 5.72225V-4.27775C5.03982 -4.27775 3.91087 -3.75232 3.21137 -3.304C2.4962 -2.84563 1.60504 -2.06812 1.01823 -0.877593L9.98786 3.54347ZM6.45591 5.72225H13.5441V-4.27775H6.45591V5.72225ZM13.5441 5.72225C12.4752 5.72225 11.7425 5.33947 11.3927 5.11524C11.0271 4.88096 10.4387 4.4088 10.0122 3.54347L18.9818 -0.877593C18.3949 -2.06823 17.5037 -2.84574 16.7886 -3.30403C16.0892 -3.75228 14.9602 -4.27775 13.5441 -4.27775V5.72225ZM10.0121 3.54338L11.4479 6.45661L20.4177 2.03573L18.9818 -0.8775L10.0121 3.54338ZM14.5324 -0.55372L13.7296 -0.319496L16.5304 9.28028L17.3332 9.04605L14.5324 -0.55372ZM13.7297 -0.319524C10.7616 0.54637 9.39458 3.56767 10.072 6.15706L19.7464 3.62601C20.3308 5.8596 19.1614 8.51272 16.5303 9.28031L13.7297 -0.319524ZM10.072 6.15676C10.7726 8.83561 13.6095 10.8253 16.698 9.92485L13.8991 0.324523C16.6507 -0.477672 19.1389 1.30333 19.7465 3.6263L10.072 6.15676ZM16.699 9.92455L19.0996 9.2241L16.2987 -0.37562L13.898 0.324824L16.699 9.92455ZM17.5796 9.42281C16.6507 9.40059 15.7847 8.98849 15.1916 8.33383L22.6022 1.61947C21.3817 0.272376 19.6678 -0.53009 17.8188 -0.574328L17.5796 9.42281ZM15.1916 8.33383C14.592 7.67203 14.3384 6.84705 14.3697 6.0976L24.361 6.51486C24.4341 4.76516 23.8479 2.99437 22.6022 1.61947L15.1916 8.33383Z" fill="#FFB800" mask="url(#path-5-inside-2_13_140)"/>
<path d="M18.7604 3.08707C18.9352 3.08707 19.0769 2.93739 19.0769 2.75276C19.0769 2.56814 18.9352 2.41846 18.7604 2.41846H17.6579C17.4831 2.41846 17.3414 2.56814 17.3414 2.75276C17.3414 2.93739 17.4831 3.08707 17.6579 3.08707H18.7604Z" fill="#FFB800" stroke="#FFB800" stroke-width="5"/>
<path d="M2.34205 3.08707C2.51683 3.08707 2.65852 2.93739 2.65852 2.75276C2.65852 2.56814 2.51683 2.41846 2.34205 2.41846H1.23956C1.06479 2.41846 0.923096 2.56814 0.923096 2.75276C0.923096 2.93739 1.06479 3.08707 1.23956 3.08707H2.34205Z" fill="#FFB800" stroke="#FFB800" stroke-width="5"/>
<mask id="path-9-inside-3_13_140" fill="white">
<path d="M13.5101 8.59448H6.48993C6.31516 8.59448 6.17346 8.74414 6.17346 8.92874V9.82211C6.17346 10.0067 6.31516 10.1564 6.48993 10.1564C6.6647 10.1564 6.8064 10.0067 6.8064 9.82211V9.263H13.1936V9.82211C13.1936 10.0067 13.3353 10.1564 13.5101 10.1564C13.6848 10.1564 13.8265 10.0067 13.8265 9.82211V8.92874C13.8265 8.74414 13.6848 8.59448 13.5101 8.59448Z"/>
</mask>
<path d="M13.5101 8.59448H6.48993C6.31516 8.59448 6.17346 8.74414 6.17346 8.92874V9.82211C6.17346 10.0067 6.31516 10.1564 6.48993 10.1564C6.6647 10.1564 6.8064 10.0067 6.8064 9.82211V9.263H13.1936V9.82211C13.1936 10.0067 13.3353 10.1564 13.5101 10.1564C13.6848 10.1564 13.8265 10.0067 13.8265 9.82211V8.92874C13.8265 8.74414 13.6848 8.59448 13.5101 8.59448Z" fill="#FFB800"/>
<path d="M6.8064 9.263V4.263H1.8064V9.263H6.8064ZM13.1936 9.263H18.1936V4.263H13.1936V9.263ZM13.8265 8.92874H18.8265H13.8265ZM13.5101 3.59448H6.48993V13.5945H13.5101V3.59448ZM6.48993 3.59448C3.29957 3.59448 1.17346 6.24393 1.17346 8.92874H11.1735C11.1735 11.2444 9.33074 13.5945 6.48993 13.5945V3.59448ZM1.17346 8.92874V9.82211H11.1735V8.92874H1.17346ZM1.17346 9.82211C1.17346 12.5069 3.29957 15.1564 6.48993 15.1564V5.15637C9.33074 5.15637 11.1735 7.50649 11.1735 9.82211H1.17346ZM6.48993 15.1564C9.68029 15.1564 11.8064 12.5069 11.8064 9.82211H1.8064C1.8064 7.50649 3.64912 5.15637 6.48993 5.15637V15.1564ZM11.8064 9.82211V9.263H1.8064V9.82211H11.8064ZM6.8064 14.263H13.1936V4.263H6.8064V14.263ZM8.1936 9.263V9.82211H18.1936V9.263H8.1936ZM8.1936 9.82211C8.1936 12.5069 10.3197 15.1564 13.5101 15.1564V5.15637C16.3509 5.15637 18.1936 7.50649 18.1936 9.82211H8.1936ZM13.5101 15.1564C16.7004 15.1564 18.8265 12.5069 18.8265 9.82211H8.82654C8.82654 7.50649 10.6693 5.15637 13.5101 5.15637V15.1564ZM18.8265 9.82211V8.92874H8.82654V9.82211H18.8265ZM18.8265 8.92874C18.8265 6.24393 16.7004 3.59448 13.5101 3.59448V13.5945C10.6693 13.5945 8.82654 11.2444 8.82654 8.92874H18.8265Z" fill="#FFB800" mask="url(#path-9-inside-3_13_140)"/>
<path d="M9.57149 6.58504C9.57149 6.47356 9.58081 6.36169 9.59901 6.25073L10.4009 6.25073C10.4192 6.36169 10.4285 6.47356 10.4285 6.58504C10.4285 6.69652 10.4192 6.80839 10.4009 6.91934H9.59901C9.58081 6.80839 9.57149 6.69652 9.57149 6.58504Z" fill="#FFB800" stroke="#FFB800" stroke-width="5"/>
</svg>
