<svg width="7" height="7" viewBox="0 0 7 7" fill="none" xmlns="http://www.w3.org/2000/svg">
<path d="M0.611877 5.23303L4.94538 0.899414L6.10055 2.05459L1.76693 6.38809L0.611877 5.23303Z" fill="#FFB800"/>
<path d="M6.59578 1.55952L6.76079 1.39452C6.91506 1.24024 7.00001 1.03521 7.00001 0.816988C7.00001 0.598766 6.91506 0.393732 6.76079 0.23946C6.60652 0.085188 6.40136 0 6.18314 0C5.96492 0 5.75989 0.0850713 5.6055 0.239343L5.44049 0.404351L6.59578 1.55952Z" fill="#FFB800" fill-opacity="0.54"/>
<path d="M0.478381 5.42969L0.00599647 6.84661C-0.00800703 6.8885 0.00296238 6.93483 0.0342369 6.96599C0.0564091 6.98816 0.0862832 7.00018 0.116741 7.00018C0.129111 7.00018 0.14148 6.9982 0.153617 6.99411L1.57042 6.52184L0.478381 5.42969Z" fill="#FFB800" fill-opacity="0.54"/>
<path d="M5.11053 0.734461L5.27566 0.569336L6.43083 1.72451L6.26571 1.88963L5.11053 0.734461Z" fill="#FFB800" fill-opacity="0.54"/>
</svg>
