<svg width="17" height="17" viewBox="0 0 17 17" fill="none" xmlns="http://www.w3.org/2000/svg">
<path d="M3.48467 11.3121C3.48467 11.5289 3.30893 11.7047 3.0921 11.7047H1.09297C0.876141 11.7047 0.700398 11.5289 0.700398 11.3121C0.700398 11.0953 0.876141 10.9195 1.09297 10.9195H3.09214C3.30893 10.9195 3.48467 11.0953 3.48467 11.3121ZM3.58753 9.4621C3.5648 9.46616 3.54177 9.46816 3.51878 9.46816C3.4958 9.46816 3.47277 9.46616 3.45004 9.4621C2.49704 9.29255 1.62422 8.78879 0.992256 8.04355C0.352402 7.28898 0 6.33122 0 5.34673V2.93187C0 2.60891 0.205797 2.15662 1.18619 1.83611C1.81496 1.63057 2.64334 1.51733 3.51874 1.51733C4.39405 1.51733 5.22243 1.63057 5.85121 1.83611C6.83164 2.15662 7.03744 2.60891 7.03744 2.93187C7.03744 2.93427 7.03744 2.93662 7.0374 2.93902V5.34669C7.0374 6.33118 6.68504 7.28893 6.04518 8.04351C5.41327 8.78879 4.54044 9.2926 3.58753 9.4621ZM6.25224 5.34673V2.93981C6.17451 2.75434 5.2657 2.30253 3.51874 2.30253C1.7713 2.30253 0.862488 2.7546 0.785151 2.93994V5.34673C0.785151 6.97125 1.93051 8.3604 3.51874 8.67612C5.10693 8.3604 6.25224 6.97125 6.25224 5.34673ZM3.0921 12.3295H2.19812C1.98128 12.3295 1.80554 12.5052 1.80554 12.722C1.80554 12.9389 1.98128 13.1146 2.19812 13.1146H3.0921C3.30893 13.1146 3.48467 12.9389 3.48467 12.722C3.48467 12.5052 3.30893 12.3295 3.0921 12.3295ZM11.6464 13.6307C11.6464 13.8476 11.4706 14.0233 11.2538 14.0233H8.98719C8.80665 14.8566 8.06363 15.4827 7.17706 15.4827C6.2679 15.4827 5.50967 14.8242 5.35425 13.9591C5.03967 13.8594 4.78017 13.6494 4.64072 13.3694C4.57093 13.2288 4.53569 13.0799 4.53569 12.9263V10.3086C4.53569 10.0918 4.71143 9.91605 4.92826 9.91605C5.14509 9.91605 5.32084 10.0918 5.32084 10.3086V12.9264C5.32084 12.9578 5.32856 12.9892 5.34378 13.0199C5.35708 13.0466 5.37693 13.0738 5.4028 13.0994C5.63176 12.3365 6.34053 11.7789 7.17706 11.7789C8.06354 11.7789 8.80656 12.4051 8.98714 13.2382H11.2537C11.4706 13.2382 11.6464 13.4139 11.6464 13.6307ZM8.24391 13.6308C8.24391 13.0426 7.76536 12.5641 7.17711 12.5641C6.59182 12.5641 6.11506 13.0378 6.11035 13.622C6.11044 13.6269 6.11039 13.6318 6.11035 13.6367C6.11353 14.2222 6.59086 14.6975 7.17711 14.6975C7.76532 14.6975 8.24391 14.219 8.24391 13.6308ZM16.9983 12.09L16.9972 12.3435C16.9964 12.508 16.9955 12.6955 16.9955 12.9264C16.9955 13.3958 16.6578 13.8023 16.1818 13.9569C16.0273 14.823 15.2686 15.4827 14.3587 15.4827C13.3375 15.4827 12.5067 14.6519 12.5067 13.6308C12.5067 12.6096 13.3375 11.7789 14.3587 11.7789C15.1939 11.7789 15.9018 12.3348 16.1318 13.0959C16.181 13.046 16.2104 12.9872 16.2104 12.9263C16.2104 12.694 16.2113 12.5053 16.212 12.3398L16.2131 12.0864C16.2146 11.7732 16.2165 11.3444 16.212 11.1442C16.2087 11.0008 16.2049 10.8832 16.1948 10.7814H10.1554C10.0146 10.7814 9.68462 10.7814 8.67491 9.78358C8.36731 9.47955 7.75581 8.83267 7.64327 8.56018C7.56052 8.35979 7.65588 8.13027 7.85626 8.04748C8.0536 7.966 8.2792 8.0572 8.36508 8.25135C8.41843 8.34701 8.73773 8.73867 9.20044 9.19899C9.78324 9.77874 10.0929 9.96647 10.1773 9.99627H15.7536C15.6274 9.87522 15.4655 9.73176 15.2574 9.54738C15.1494 9.45168 15.0307 9.34651 14.9003 9.22952C14.8052 9.14425 14.7105 9.05369 14.6189 8.96615C14.4854 8.83865 14.3475 8.70687 14.2038 8.58653C14.0771 8.48027 13.957 8.37925 13.8428 8.28311C12.3859 7.05635 11.9943 6.72663 10.7656 6.72663H8.05543C7.8386 6.72663 7.66285 6.55089 7.66285 6.33406C7.66285 6.11723 7.8386 5.94148 8.05543 5.94148H10.7656C12.2808 5.94148 12.8861 6.45118 14.3485 7.68247C14.4622 7.77817 14.5818 7.87884 14.708 7.98462C14.8713 8.12146 15.0187 8.26226 15.1613 8.39844C15.2526 8.48563 15.3388 8.56803 15.4247 8.64511C15.5538 8.76087 15.6712 8.86495 15.7781 8.95969C16.719 9.79335 16.972 10.0174 16.997 11.1264C17.0017 11.3373 16.9998 11.7546 16.9983 12.09ZM15.4254 13.6267C15.4232 13.0404 14.9455 12.5641 14.3586 12.5641C13.7704 12.5641 13.2918 13.0426 13.2918 13.6308C13.2918 14.219 13.7704 14.6975 14.3586 14.6975C14.9466 14.6975 15.4249 14.2194 15.4254 13.6316C15.4254 13.6299 15.4254 13.6283 15.4254 13.6267ZM14.3591 13.2382H14.3581C14.1413 13.2382 13.9661 13.4139 13.9661 13.6308C13.9661 13.8476 14.1424 14.0233 14.3592 14.0233C14.576 14.0233 14.7518 13.8476 14.7518 13.6308C14.7518 13.4139 14.576 13.2382 14.3591 13.2382ZM6.51038 10.3888C6.51038 10.6056 6.68613 10.7814 6.90296 10.7814H7.34461C7.56144 10.7814 7.73718 10.6056 7.73718 10.3888C7.73718 10.172 7.56144 9.99622 7.34461 9.99622H6.90296C6.68617 9.99622 6.51038 10.172 6.51038 10.3888ZM7.17759 13.2382H7.17641C6.95958 13.2382 6.7844 13.4139 6.7844 13.6308C6.7844 13.8476 6.96076 14.0233 7.17759 14.0233C7.39442 14.0233 7.57016 13.8476 7.57016 13.6308C7.57016 13.4139 7.39442 13.2382 7.17759 13.2382Z" fill="#FFB800"/>
<line x1="2" y1="5.5" x2="5" y2="5.5" stroke="#FFB800"/>
<line x1="3.5" y1="4" x2="3.5" y2="7" stroke="#FFB800"/>
</svg>
