<svg width="31" height="37" viewBox="0 0 31 37" fill="none" xmlns="http://www.w3.org/2000/svg">
<path d="M15.5001 0.45536C23.7695 0.45536 30.4733 7.1591 30.4733 15.4286C30.4733 21.7552 26.0281 28.6499 17.2511 36.1881C16.244 37.0531 14.7561 37.0531 13.745 36.1847L13.1649 35.6818C4.77637 28.3422 0.526855 21.6141 0.526855 15.4286C0.526855 7.1591 7.23059 0.45536 15.5001 0.45536ZM15.5001 9.66965C12.3195 9.66965 9.74114 12.248 9.74114 15.4286C9.74114 18.6091 12.3195 21.1875 15.5001 21.1875C18.6806 21.1875 21.259 18.6091 21.259 15.4286C21.259 12.248 18.6806 9.66965 15.5001 9.66965Z" fill="white"/>
</svg>
