<svg width="19" height="26" viewBox="0 0 19 26" fill="none" xmlns="http://www.w3.org/2000/svg">
<path d="M16.6875 19.5757L13.3863 17.3615C13.247 17.2622 13.0838 17.2019 12.9134 17.1867C12.7431 17.1714 12.5717 17.2019 12.4171 17.2749L11.1497 17.9177C10.9907 17.9959 10.8123 18.0259 10.6365 18.0042C10.4606 17.9825 10.295 17.9099 10.1598 17.7954C7.79027 15.8347 6.20431 13.0877 5.69101 10.0553C5.65944 9.88095 5.67943 9.70119 5.74853 9.53804C5.81763 9.3749 5.93285 9.23547 6.08004 9.13685L7.23399 8.29756C7.37703 8.20334 7.49234 8.07266 7.56802 7.919C7.6437 7.76535 7.677 7.59428 7.66449 7.42345L7.39749 3.45749L7.33651 2.44163C7.3255 2.29543 7.28161 2.1536 7.20812 2.02674C7.09026 1.82085 6.89973 1.66641 6.6739 1.59371C6.05115 1.38642 5.38792 1.33074 4.73931 1.43128C4.09071 1.53181 3.47546 1.78567 2.94468 2.17176L2.68547 2.36905L2.5512 2.47197C2.4887 2.51706 2.42868 2.5655 2.3714 2.61706L2.206 2.77607C0.0227425 4.90981 0.433435 10.2742 3.24683 15.6008L4.10277 17.0834C7.305 22.176 11.7453 25.2139 14.698 24.4348L14.9184 24.3711C14.9913 24.3474 15.0628 24.3199 15.1327 24.2886L15.2897 24.2249L15.5902 24.0991C16.1896 23.8322 16.7168 23.4261 17.1278 22.9146C17.5388 22.4031 17.8219 21.8009 17.9535 21.158C18.0035 20.9261 17.965 20.6839 17.8456 20.4789C17.7725 20.3518 17.6716 20.2429 17.5505 20.1602L16.6875 19.5757Z" stroke="#959595" stroke-width="1.5" stroke-miterlimit="10"/>
</svg>
