<svg width="39" height="37" viewBox="0 0 39 37" fill="none" xmlns="http://www.w3.org/2000/svg">
<path d="M37.978 1.51893C37.6745 1.25112 37.305 1.07328 36.9096 1.00469C36.5142 0.936094 36.1079 0.979373 35.7349 1.12983L1.85135 14.7245C1.40841 14.9022 1.03373 15.2216 0.783363 15.6349C0.533001 16.0482 0.420424 16.5333 0.462478 17.0174C0.504532 17.5015 0.698956 17.9587 1.01666 18.3205C1.33436 18.6824 1.75825 18.9294 2.2249 19.0247L11.4219 20.9034V32.4971C11.4173 32.9431 11.5447 33.3802 11.7873 33.7511C12.03 34.1219 12.3766 34.4094 12.7819 34.5757C13.0534 34.6918 13.3447 34.752 13.639 34.7528C13.9266 34.7518 14.2112 34.6926 14.4762 34.5785C14.7413 34.4643 14.9814 34.2976 15.1829 34.0879L20.433 28.7261L28.1794 35.6881C28.5786 36.0501 29.0937 36.2503 29.6276 36.2509C29.8597 36.2507 30.0903 36.2133 30.3111 36.1402C30.6752 36.0222 31.0026 35.8089 31.2608 35.5213C31.5189 35.2338 31.6987 34.8822 31.7822 34.5015L38.6879 3.72663C38.778 3.32751 38.7596 2.91081 38.6344 2.52166C38.5093 2.13251 38.2823 1.78575 37.978 1.51893ZM1.92549 16.8848C1.90722 16.7228 1.94299 16.5592 2.02701 16.4205C2.11103 16.2818 2.23839 16.1761 2.38851 16.1205L33.448 3.65883L11.9859 19.4889L2.51293 17.554C2.35557 17.5262 2.21199 17.445 2.10539 17.3236C1.99879 17.2022 1.93541 17.0476 1.92549 16.8848ZM14.1442 33.0274C14.0415 33.1322 13.9107 33.2037 13.7683 33.2326C13.6258 33.2616 13.4782 33.2467 13.344 33.1899C13.2098 33.1332 13.0951 33.0371 13.0144 32.9137C12.9337 32.7904 12.8906 32.6454 12.8906 32.4971V21.9476L19.3282 27.7332L14.1442 33.0274ZM37.2563 3.39155L30.3506 34.1665C30.3222 34.2931 30.262 34.41 30.176 34.5058C30.0901 34.6015 29.9812 34.6728 29.8601 34.7127C29.7391 34.7526 29.6099 34.7596 29.4854 34.7332C29.3608 34.7068 29.2451 34.6478 29.1496 34.562L13.3322 20.3464L37.1376 2.78794C37.2002 2.87314 37.2434 2.97156 37.2639 3.07601C37.2844 3.18045 37.2818 3.28827 37.2563 3.39155Z" fill="white"/>
</svg>
