<svg width="13" height="14" viewBox="0 0 13 14" fill="none" xmlns="http://www.w3.org/2000/svg">
<path d="M9.13107 5.21275L13 2.43784V0H0V2.43784L3.86897 5.21275L4.45602 4.5282L4.89094 5.28939L3.41393 12.4647L6.5 14L9.58607 12.4647L8.1091 5.28939L8.54402 4.5282L9.13107 5.21275ZM11.8484 2.06445L9.34369 3.86088L8.33047 2.67934L11.8484 1.17963V2.06445H11.8484ZM10.233 0.869632L7.36332 2.093H5.63672L2.76704 0.869632H10.233ZM3.65631 3.86085L1.1516 2.06442V1.1796L4.66949 2.67931L3.65631 3.86085ZM6.5 12.9586L4.66553 12.046L5.97863 5.6671H7.02141L8.33447 12.046L6.5 12.9586ZM7.13595 4.79747H5.86408L5.20871 3.65045L5.79852 2.96263H7.20148L7.79129 3.65045L7.13595 4.79747Z" fill="#FFB800"/>
</svg>
