<svg width="19" height="19" viewBox="0 0 19 19" fill="none" xmlns="http://www.w3.org/2000/svg">
<path d="M11.8839 11.3041C12.3651 11.5802 12.9219 11.7391 13.5155 11.7391C15.3292 11.7391 16.8049 10.2635 16.8049 8.44971C16.8049 6.63594 15.3292 5.16032 13.5155 5.16032C13.4753 5.16032 13.4355 5.16193 13.3956 5.16338C13.059 3.80235 12.3031 2.56837 11.2294 1.64407C9.998 0.583868 8.42386 0 6.79691 0C3.04909 0 0 3.04909 0 6.79691C0 10.5447 3.04909 13.5938 6.79691 13.5938C7.88637 13.5938 8.9273 13.3436 9.89085 12.8503C10.6417 12.4658 11.322 11.9368 11.8839 11.3041ZM15.6296 8.44967C15.6296 9.61541 14.6812 10.5638 13.5155 10.5638C12.3497 10.5638 11.4014 9.61541 11.4014 8.44967C11.4014 7.28393 12.3497 6.33558 13.5155 6.33558C14.6812 6.33558 15.6296 7.28397 15.6296 8.44967ZM1.17526 6.79691C1.17526 3.69713 3.69713 1.17526 6.79691 1.17526C9.40825 1.17526 11.6265 2.93035 12.248 5.41461C11.0616 5.9119 10.2261 7.08492 10.2261 8.44967C10.2261 9.24677 10.5112 9.97841 10.9847 10.5483C9.9187 11.7428 8.41833 12.4186 6.79691 12.4186C3.69713 12.4186 1.17526 9.89669 1.17526 6.79691Z" fill="#FFB800"/>
<path d="M6.20928 6.20324L2.54541 6.20927L2.54737 7.38453L7.38453 7.37654V2.54639H6.20928V6.20324Z" fill="#FFB800"/>
<path d="M13.5155 12.9277C10.4913 12.9277 8.03094 15.3881 8.03094 18.4123V18.9999H19V18.4123C19 15.3881 16.5397 12.9277 13.5155 12.9277ZM9.24612 17.8246C9.50726 15.9176 11.0208 14.4042 12.9279 14.143V16.8453H14.1031V14.143C16.0101 14.4042 17.5237 15.9176 17.7848 17.8246H9.24612Z" fill="#FFB800"/>
</svg>
