<svg width="38" height="38" viewBox="0 0 38 38" fill="none" xmlns="http://www.w3.org/2000/svg">
<g clip-path="url(#clip0_168_6)">
<path d="M19 0C8.52296 0 0 8.52296 0 19C0 22.5742 0.993115 26.0439 2.87704 29.0568C2.12654 31.6862 0.770961 36.6598 0.756346 36.7117C0.686192 36.9689 0.761461 37.2437 0.953654 37.4285C1.14585 37.6134 1.42354 37.6792 1.67638 37.6017L9.20769 35.2852C12.1578 37.0624 15.5362 38 19 38C29.477 38 38 29.477 38 19C38 8.52296 29.477 0 19 0ZM19 36.5385C15.6977 36.5385 12.4808 35.6155 9.69658 33.8704C9.57892 33.7966 9.44373 33.7593 9.30854 33.7593C9.23619 33.7593 9.16385 33.7703 9.09369 33.7915L2.5175 35.8157C3.00054 34.0524 3.86869 30.8984 4.37219 29.1438C4.43065 28.9407 4.39777 28.7214 4.28304 28.5438C2.43712 25.7033 1.46154 22.4032 1.46154 19C1.46154 9.32973 9.32973 1.46154 19 1.46154C28.6703 1.46154 36.5385 9.32973 36.5385 19C36.5385 28.6703 28.6703 36.5385 19 36.5385Z" fill="white"/>
<path d="M31.4121 23.4767C30.0631 22.7277 28.9144 21.9764 28.0762 21.4283C27.436 21.0103 26.9734 20.7085 26.6344 20.5383C25.6866 20.0655 24.9682 20.3994 24.6949 20.6757C24.6606 20.71 24.6299 20.7473 24.6036 20.7867C23.6192 22.2636 22.3338 23.6762 21.9574 23.7522C21.5226 23.6842 19.4874 22.5274 17.4647 20.843C15.3995 19.122 14.1002 17.4742 13.9095 16.3517C15.2344 14.9881 15.7116 14.1302 15.7116 13.1538C15.7116 12.1476 13.3643 7.94638 12.9397 7.52181C12.5137 7.0965 11.5542 7.03 10.0876 7.32231C9.94651 7.35081 9.81644 7.42023 9.71413 7.52181C9.53655 7.69938 5.3814 11.9357 7.35594 17.07C9.5234 22.705 15.0867 29.2549 22.1796 30.3189C22.9856 30.4395 23.7412 30.4994 24.4486 30.4994C28.6213 30.4994 31.084 28.3999 31.7775 24.2352C31.8294 23.9305 31.6825 23.6265 31.4121 23.4767ZM22.3966 28.8734C14.896 27.7488 10.1716 20.3176 8.72028 16.5453C7.28067 12.8038 9.93555 9.46784 10.602 8.71369C11.1442 8.62161 11.715 8.58288 11.9532 8.62015C12.4509 9.31219 14.174 12.5678 14.25 13.1538C14.25 13.5375 14.1251 14.0717 12.6372 15.5603C12.4998 15.6969 12.4231 15.8825 12.4231 16.0769C12.4231 19.9032 20.4937 25.2115 21.9231 25.2115C23.1661 25.2115 24.787 23.1223 25.7099 21.7608C25.7633 21.763 25.8532 21.7813 25.9811 21.8456C26.2441 21.9779 26.7001 22.2753 27.2767 22.6524C28.0382 23.15 29.0496 23.8107 30.2436 24.4954C29.7014 27.1042 28.1858 29.743 22.3966 28.8734Z" fill="white"/>
</g>
<defs>
<clipPath id="clip0_168_6">
<rect width="38" height="38" fill="white"/>
</clipPath>
</defs>
</svg>
